<svg width="608" height="429" viewBox="0 0 608 429" fill="none" xmlns="http://www.w3.org/2000/svg">
<path d="M555.566 323.33L484.21 342.656L537.27 317.849C519.253 313.396 498.848 310.904 477.331 310.987C470.791 311.012 464.367 311.269 458.092 311.741C440.502 313.063 422.844 313.201 405.235 312.156L261.024 342.656L376.503 309.317C356.432 306.512 337.362 302.049 320.244 295.957C317.052 294.821 313.789 293.731 310.453 292.685L79.0082 367.523C79.0082 367.523 175.645 315.123 242.372 279.121C228.492 277.724 214.551 277.028 200.601 277.035C89.812 277.035 0 319.981 0 372.956C0 393.878 14.011 413.235 37.7872 429H533.765C577.644 419.071 608 397.71 608 372.957C608 352.749 587.278 334.672 555.566 323.33Z" fill="#F0F0F0"/>
<path d="M479.262 353.144C492.067 391.755 487.57 428.008 487.57 428.008C487.57 428.008 462.311 401.66 449.505 363.049C436.7 324.438 441.197 288.185 441.197 288.185C441.197 288.185 466.456 314.533 479.262 353.144Z" fill="#6C63FF"/>
<path d="M495.878 353.144C483.073 391.755 487.57 428.008 487.57 428.008C487.57 428.008 512.829 401.66 525.635 363.049C538.44 324.438 533.943 288.185 533.943 288.185C533.943 288.185 508.684 314.533 495.878 353.144Z" fill="#6C63FF"/>
<path d="M501.036 353.561C501.894 394.239 486.916 427.546 486.916 427.546C486.916 427.546 470.545 394.903 469.687 354.225C468.829 313.548 483.807 280.24 483.807 280.24C483.807 280.24 500.178 312.884 501.036 353.561Z" fill="#3F3D56"/>
<path d="M485.361 321.594C487.557 321.594 489.336 319.811 489.336 317.612C489.336 315.412 487.557 313.629 485.361 313.629C483.166 313.629 481.387 315.412 481.387 317.612C481.387 319.811 483.166 321.594 485.361 321.594Z" fill="#6C63FF"/>
<path d="M477.633 351.681C478.852 351.681 479.841 350.69 479.841 349.469C479.841 348.247 478.852 347.256 477.633 347.256C476.413 347.256 475.425 348.247 475.425 349.469C475.425 350.69 476.413 351.681 477.633 351.681Z" fill="#6C63FF"/>
<path d="M450.693 329.779C451.913 329.779 452.901 328.789 452.901 327.567C452.901 326.345 451.913 325.355 450.693 325.355C449.473 325.355 448.485 326.345 448.485 327.567C448.485 328.789 449.473 329.779 450.693 329.779Z" fill="#3F3D56"/>
<path d="M528.642 308.32C529.861 308.32 530.85 307.329 530.85 306.108C530.85 304.886 529.861 303.895 528.642 303.895C527.422 303.895 526.433 304.886 526.433 306.108C526.433 307.329 527.422 308.32 528.642 308.32Z" fill="#3F3D56"/>
<path d="M462.176 350.575C463.395 350.575 464.384 349.584 464.384 348.362C464.384 347.141 463.395 346.15 462.176 346.15C460.956 346.15 459.967 347.141 459.967 348.362C459.967 349.584 460.956 350.575 462.176 350.575Z" fill="#3F3D56"/>
<path d="M508.547 337.743C509.767 337.743 510.755 336.753 510.755 335.531C510.755 334.309 509.767 333.319 508.547 333.319C507.328 333.319 506.339 334.309 506.339 335.531C506.339 336.753 507.328 337.743 508.547 337.743Z" fill="#3F3D56"/>
<path d="M463.501 383.096C464.72 383.096 465.709 382.105 465.709 380.883C465.709 379.661 464.72 378.671 463.501 378.671C462.281 378.671 461.292 379.661 461.292 380.883C461.292 382.105 462.281 383.096 463.501 383.096Z" fill="#3F3D56"/>
<path d="M510.755 370.485C511.975 370.485 512.964 369.495 512.964 368.273C512.964 367.051 511.975 366.061 510.755 366.061C509.536 366.061 508.547 367.051 508.547 368.273C508.547 369.495 509.536 370.485 510.755 370.485Z" fill="#3F3D56"/>
<path d="M489.336 372.698C490.556 372.698 491.544 371.707 491.544 370.485C491.544 369.264 490.556 368.273 489.336 368.273C488.117 368.273 487.128 369.264 487.128 370.485C487.128 371.707 488.117 372.698 489.336 372.698Z" fill="#6C63FF"/>
<path d="M285.071 58.0273H285.071C291.456 58.0273 297.58 60.5685 302.095 65.0919C306.61 69.6153 309.146 75.7504 309.146 82.1474V111.853H260.996V82.1474C260.996 75.7504 263.532 69.6153 268.047 65.0919C272.562 60.5685 278.686 58.0273 285.071 58.0273V58.0273Z" fill="black"/>
<path d="M238.694 128.103C238.694 128.103 214.112 120.232 210.058 127.341C206.003 134.45 209.044 145.114 210.058 149.176C211.071 153.239 218.674 200.971 238.948 188.276C259.222 175.581 238.694 128.103 238.694 128.103Z" fill="#3F3D56"/>
<path opacity="0.1" d="M238.694 128.103C238.694 128.103 214.112 120.232 210.058 127.341C206.003 134.45 209.044 145.114 210.058 149.176C211.071 153.239 218.674 200.971 238.948 188.276C259.222 175.581 238.694 128.103 238.694 128.103Z" fill="black"/>
<path d="M233.879 144.606H213.099C213.099 144.606 202.307 139.526 208.463 131.657C214.619 123.787 237.427 130.896 237.427 130.896L233.879 144.606Z" fill="#FFCECE"/>
<path d="M360.084 184.214L380.358 204.526C380.358 204.526 397.084 202.495 400.632 208.588C404.18 214.682 376.303 215.189 376.303 215.189L347.413 186.245L360.084 184.214Z" fill="#FFCECE"/>
<path d="M242.496 241.087L238.441 279.679C238.441 279.679 239.962 301.514 230.838 314.717C221.715 327.919 213.606 380.222 213.606 380.222C213.606 380.222 202.962 405.104 212.592 406.627C222.222 408.151 222.222 390.378 222.222 390.378L227.797 370.574C227.797 370.574 241.989 344.677 247.057 326.396C247.057 326.396 262.77 303.038 262.77 291.866C262.77 280.695 268.852 241.087 268.852 241.087H242.496Z" fill="#FFCECE"/>
<path d="M273.92 246.673L283.043 293.897C283.043 293.897 283.55 312.686 285.578 320.303C285.578 320.303 286.591 347.723 290.139 358.895C293.687 370.066 296.221 386.824 296.221 386.824L293.687 391.394L296.221 407.643L302.304 416.783L308.893 411.198L307.372 379.714C307.372 379.714 310.413 332.997 306.358 322.842L303.824 264.445L303.317 246.673H273.92Z" fill="#FFCECE"/>
<path d="M258.208 132.927L239.962 247.688C239.962 247.688 264.29 245.149 271.893 251.243C279.496 257.336 306.358 253.782 306.358 253.782L307.706 148.228L298.756 127.849L267.838 125.31L258.208 132.927Z" fill="#6C63FF"/>
<path d="M273.413 94.8423C273.413 94.8423 275.948 118.201 273.413 120.74C270.879 123.279 300.783 120.74 300.783 120.74C300.783 120.74 292.674 96.3657 293.687 93.3189C294.701 90.2722 273.413 94.8423 273.413 94.8423Z" fill="#FFB6B6"/>
<path opacity="0.1" d="M273.413 94.8423C273.413 94.8423 275.948 118.201 273.413 120.74C270.879 123.279 300.783 120.74 300.783 120.74C300.783 120.74 292.674 96.3657 293.687 93.3189C294.701 90.2722 273.413 94.8423 273.413 94.8423Z" fill="black"/>
<path d="M285.071 112.615L273.413 107.029C273.413 107.029 267.331 104.998 267.331 108.045C267.331 111.092 263.276 111.599 264.797 114.646C266.318 117.693 276.454 128.357 313.454 125.31C313.454 125.31 321.057 122.771 329.673 128.864C329.673 128.864 325.112 117.185 303.317 102.459L285.071 112.615Z" fill="#3F3D56"/>
<path d="M267.331 112.107C267.331 112.107 261.249 116.677 261.249 117.693C261.249 118.709 234.893 193.862 234.893 193.862C234.893 193.862 186.236 244.641 190.291 248.704C194.345 252.766 195.866 255.813 201.948 256.828C201.948 256.828 215.633 279.679 249.085 276.125L273.413 154.762L282.537 134.958C282.537 134.958 280.002 218.236 287.098 218.236H296.222C296.222 218.236 297.235 281.71 302.811 281.71C308.386 281.71 313.961 279.679 313.454 277.14C312.947 274.601 311.934 248.704 311.934 248.704C311.934 248.704 326.125 256.321 326.125 251.75C326.125 247.18 321.057 210.111 321.057 210.111L318.016 121.755L306.358 113.631L267.331 112.107Z" fill="#3F3D56"/>
<path d="M263.783 118.201H261.249C257.752 118 254.263 118.699 251.112 120.232L215.633 124.802C215.633 124.802 226.277 125.818 228.304 138.005C230.331 150.192 232.359 157.809 233.373 158.317C234.386 158.824 227.797 196.401 239.455 201.479C251.112 206.557 259.222 197.417 262.263 183.706C265.304 169.996 275.948 123.787 275.948 123.787L263.783 118.201Z" fill="#3F3D56"/>
<path d="M320.55 120.74L330.687 128.865C330.687 128.865 331.194 135.466 337.276 141.052C343.358 146.637 366.673 187.261 365.66 188.276C364.646 189.292 329.167 191.831 331.194 203.002C333.221 214.174 318.523 213.666 318.523 213.666L305.345 133.942L320.55 120.74Z" fill="#3F3D56"/>
<path d="M212.24 144.448L178.606 111.473C178.606 111.473 151.848 103.591 156.647 97.7715C161.446 91.9519 185.792 102.489 185.792 102.489L216.933 127.956L214.088 143.856C214.053 144.053 213.965 144.236 213.833 144.386C213.702 144.537 213.532 144.648 213.342 144.709C213.152 144.77 212.949 144.778 212.754 144.732C212.56 144.686 212.382 144.587 212.24 144.448Z" fill="#FFCECE"/>
<path d="M208.537 384.792L201.948 407.643C201.948 407.643 196.373 425.562 208.537 427.085C220.701 428.608 218.167 418.453 218.167 418.453L219.726 402.433C219.726 402.433 210.277 409.976 209.551 400.026C209.149 393.619 210.462 387.221 213.352 381.492L208.537 384.792Z" fill="#2F2E41"/>
<path d="M297.742 423.892L296.221 416.783H293.18L290.646 414.244C290.646 414.244 293.687 403.073 291.66 397.995C289.632 392.917 290.646 387.331 296.221 386.823C296.221 386.823 292.674 402.057 301.29 410.182C301.29 410.182 309.205 414.785 308.795 409.183L308.893 402.847L310.92 411.198C310.92 411.198 312.441 419.322 314.975 421.354C317.509 423.385 315.989 427.955 308.893 426.939C301.797 425.924 297.742 423.892 297.742 423.892Z" fill="#2F2E41"/>
<path d="M282.79 133.688C283.63 133.688 284.311 133.006 284.311 132.165C284.311 131.324 283.63 130.642 282.79 130.642C281.95 130.642 281.27 131.324 281.27 132.165C281.27 133.006 281.95 133.688 282.79 133.688Z" fill="#2F2E41"/>
<path d="M284.817 101.698C294.615 101.698 302.557 93.7404 302.557 83.9247C302.557 74.1091 294.615 66.152 284.817 66.152C275.02 66.152 267.078 74.1091 267.078 83.9247C267.078 93.7404 275.02 101.698 284.817 101.698Z" fill="#FFCECE"/>
<path d="M265.557 84.9404L279.242 68.1832C279.242 68.1832 294.448 86.4637 305.091 85.956L307.119 75.2923L296.982 65.1364L284.311 62.0897L272.146 64.6286L262.134 74.802L265.557 84.9404Z" fill="black"/>
<path d="M388.911 61.8597C385.716 61.8599 382.619 62.9615 380.14 64.9793C377.66 66.9971 375.95 69.8083 375.295 72.9406C374.64 76.073 375.081 79.3357 376.544 82.1808C378.006 85.0259 380.402 87.28 383.327 88.5646C383.269 87.4925 383.35 86.4174 383.57 85.3665C383.837 84.2341 385.358 77.7694 385.358 77.7694C385.054 77.0755 384.902 76.3245 384.911 75.5668C384.911 73.5011 386.103 71.958 387.594 71.958C388.861 71.958 389.469 72.91 389.469 74.0486C389.469 75.3241 388.656 77.2281 388.24 78.9951C388.157 79.3225 388.152 79.6648 388.225 79.9944C388.299 80.324 388.449 80.6317 388.662 80.8927C388.876 81.1537 389.149 81.3606 389.457 81.4968C389.766 81.633 390.102 81.6947 390.438 81.6768C393.071 81.6768 394.848 78.2858 394.848 74.2664C394.848 71.2114 392.792 68.9279 389.06 68.9279C388.166 68.8927 387.275 69.0399 386.441 69.3606C385.606 69.6813 384.845 70.1687 384.204 70.7931C383.564 71.4176 383.056 72.1662 382.713 72.9932C382.37 73.8203 382.199 74.7086 382.209 75.6041C382.168 76.5972 382.496 77.5703 383.129 78.3356C383.24 78.4274 383.319 78.5522 383.354 78.692C383.39 78.8318 383.381 78.9793 383.327 79.1133C383.259 79.3684 383.11 79.9844 383.042 80.2333C383.03 80.3085 383 80.3798 382.955 80.4413C382.91 80.5028 382.851 80.5526 382.783 80.5867C382.715 80.6208 382.64 80.6381 382.564 80.6372C382.488 80.6364 382.413 80.6173 382.346 80.5817C380.402 79.7853 379.495 77.6573 379.495 75.2556C379.495 71.2984 382.83 66.551 389.438 66.551C394.748 66.551 398.245 70.4025 398.245 74.5339C398.245 80.0031 395.208 84.0847 390.736 84.0847C390.071 84.1022 389.411 83.9526 388.818 83.6494C388.224 83.3462 387.716 82.8991 387.339 82.3487C387.339 82.3487 386.532 85.5593 386.358 86.1815C386.037 87.2387 385.566 88.2444 384.961 89.1681C386.874 89.7343 388.887 89.8816 390.862 89.6C392.837 89.3185 394.729 88.6147 396.408 87.5363C398.088 86.458 399.517 85.0303 400.598 83.3501C401.678 81.6699 402.386 79.7766 402.672 77.7984C402.958 75.8203 402.816 73.8036 402.256 71.8852C401.696 69.9668 400.73 68.1916 399.425 66.6798C398.12 65.1681 396.505 63.9553 394.691 63.1236C392.877 62.2919 390.906 61.8609 388.91 61.8596L388.911 61.8597Z" fill="#3F3D56"/>
<path d="M145.399 2.83103C144.302 3.3174 143.138 3.63821 141.946 3.78299C143.203 3.02979 144.143 1.84446 144.592 0.447988C143.412 1.15164 142.12 1.64628 140.773 1.91017C139.949 1.02688 138.878 0.412501 137.701 0.147003C136.524 -0.118496 135.294 -0.022827 134.172 0.421556C133.049 0.865939 132.087 1.63846 131.409 2.6386C130.731 3.63874 130.369 4.82017 130.37 6.02918C130.368 6.49205 130.42 6.95359 130.525 7.40425C128.133 7.28554 125.793 6.66285 123.657 5.5768C121.521 4.49076 119.637 2.96577 118.129 1.10131C117.36 2.42973 117.125 4.00199 117.473 5.49787C117.82 6.99374 118.723 8.30073 119.999 9.15261C119.04 9.12891 118.102 8.87042 117.266 8.39973V8.47439C117.266 9.86627 117.746 11.2154 118.626 12.2928C119.505 13.3702 120.73 14.1095 122.092 14.3853C121.576 14.5256 121.043 14.5968 120.508 14.5969C120.129 14.5975 119.75 14.56 119.378 14.4849C119.762 15.6828 120.51 16.7305 121.518 17.4814C122.526 18.2322 123.743 18.6486 124.998 18.6723C122.868 20.3496 120.236 21.2593 117.527 21.2544C117.048 21.2537 116.569 21.2246 116.092 21.1673C118.831 22.9527 122.029 23.8997 125.296 23.8926C136.369 23.8926 142.418 14.7026 142.418 6.73221C142.418 6.47088 142.412 6.20956 142.4 5.95446C143.577 5.10002 144.593 4.04236 145.399 2.83103V2.83103Z" fill="#3F3D56"/>
<path d="M401.933 158.35H380.719C380.369 158.35 380.035 158.489 379.788 158.736C379.541 158.984 379.402 159.319 379.402 159.669V180.923C379.402 181.273 379.541 181.608 379.788 181.856C380.035 182.103 380.369 182.242 380.719 182.242H391.326V172.785H388.475V169.301H391.326V166.725C391.326 163.639 393.462 161.959 396.214 161.959C397.53 161.959 398.946 162.058 399.275 162.102V165.325H397.083C395.586 165.325 395.301 166.034 395.301 167.079V169.301H398.865L398.4 172.785H395.301V182.242H401.933C402.282 182.242 402.617 182.103 402.864 181.856C403.111 181.609 403.25 181.273 403.25 180.923V159.669C403.25 159.319 403.111 158.984 402.864 158.736C402.617 158.489 402.282 158.35 401.933 158.35V158.35Z" fill="#3F3D56"/>
<path d="M173.475 60.033C174.792 60.0368 176.053 60.5625 176.984 61.4951C177.915 62.4278 178.44 63.6916 178.443 65.0106V74.9658C178.44 76.2848 177.915 77.5486 176.984 78.4813C176.053 79.4139 174.792 79.9396 173.475 79.9434H163.538C162.222 79.9396 160.96 79.4139 160.029 78.4813C159.099 77.5486 158.574 76.2848 158.57 74.9658V65.0106C158.574 63.6916 159.099 62.4278 160.029 61.4952C160.96 60.5625 162.222 60.0368 163.538 60.033H173.475V60.033ZM173.475 58.0419H163.538C161.695 58.0473 159.929 58.7833 158.626 60.089C157.323 61.3947 156.588 63.1641 156.583 65.0106V74.9658C156.588 76.8124 157.323 78.5818 158.626 79.8875C159.929 81.1932 161.695 81.9291 163.538 81.9345H173.475C175.318 81.9291 177.084 81.1932 178.387 79.8875C179.691 78.5818 180.425 76.8124 180.431 74.9658V65.0106C180.425 63.1641 179.691 61.3947 178.387 60.089C177.084 58.7833 175.318 58.0473 173.475 58.0419V58.0419Z" fill="#3F3D56"/>
<path d="M174.965 65.0106C174.671 65.0106 174.383 64.923 174.137 64.759C173.892 64.5949 173.701 64.3617 173.588 64.0888C173.476 63.8159 173.446 63.5157 173.504 63.226C173.561 62.9363 173.703 62.6703 173.912 62.4614C174.12 62.2526 174.386 62.1104 174.675 62.0527C174.964 61.9951 175.264 62.0247 175.536 62.1377C175.808 62.2507 176.041 62.4421 176.205 62.6877C176.369 62.9333 176.456 63.222 176.456 63.5173C176.456 63.7136 176.418 63.908 176.343 64.0894C176.269 64.2707 176.159 64.4355 176.02 64.5743C175.882 64.7131 175.717 64.823 175.536 64.8979C175.355 64.9728 175.161 65.0111 174.965 65.0106V65.0106ZM168.507 66.0062C169.293 66.0062 170.061 66.2397 170.715 66.6773C171.368 67.1148 171.878 67.7367 172.179 68.4644C172.48 69.192 172.558 69.9927 172.405 70.7651C172.252 71.5376 171.873 72.2471 171.317 72.804C170.761 73.3609 170.053 73.7402 169.282 73.8938C168.511 74.0475 167.712 73.9686 166.986 73.6672C166.259 73.3658 165.639 72.8554 165.202 72.2006C164.765 71.5457 164.532 70.7758 164.532 69.9883C164.533 68.9324 164.952 67.9201 165.697 67.1736C166.442 66.427 167.453 66.0071 168.507 66.0062V66.0062ZM168.507 64.0151C167.327 64.0151 166.175 64.3654 165.194 65.0218C164.214 65.6781 163.45 66.611 162.998 67.7024C162.547 68.7939 162.429 69.9949 162.659 71.1535C162.889 72.3122 163.457 73.3765 164.291 74.2119C165.125 75.0473 166.187 75.6162 167.344 75.8466C168.5 76.0771 169.699 75.9588 170.788 75.5067C171.878 75.0546 172.809 74.289 173.464 73.3068C174.119 72.3245 174.469 71.1696 174.469 69.9883C174.468 68.4042 173.84 66.8851 172.722 65.765C171.604 64.645 170.088 64.0155 168.507 64.0151V64.0151Z" fill="#3F3D56"/>
<path d="M450.454 109.123H430.556C430.3 109.11 430.045 109.148 429.804 109.235C429.563 109.322 429.341 109.456 429.152 109.629C428.963 109.802 428.809 110.01 428.701 110.243C428.592 110.475 428.53 110.727 428.519 110.983V130.962C428.533 131.499 428.752 132.011 429.131 132.392C429.509 132.773 430.02 132.993 430.556 133.009H450.448C450.972 132.988 451.466 132.762 451.824 132.379C452.182 131.996 452.375 131.486 452.361 130.962V110.983C452.365 110.733 452.318 110.485 452.223 110.254C452.128 110.024 451.987 109.815 451.809 109.64C451.63 109.466 451.418 109.33 451.185 109.241C450.952 109.152 450.703 109.112 450.454 109.123ZM435.909 129.033H432.494V118.393H435.909V129.033ZM434.32 116.776H434.295C433.803 116.772 433.333 116.574 432.987 116.224C432.642 115.874 432.448 115.401 432.45 114.909C432.452 114.416 432.648 113.945 432.996 113.597C433.344 113.25 433.816 113.055 434.307 113.055C434.799 113.055 435.27 113.25 435.618 113.597C435.966 113.945 436.163 114.416 436.164 114.909C436.166 115.401 435.973 115.874 435.627 116.224C435.281 116.574 434.811 116.772 434.32 116.776ZM448.392 129.033H444.977V123.215C444.977 121.822 444.48 120.87 443.244 120.87C442.857 120.873 442.482 120.996 442.168 121.222C441.854 121.449 441.618 121.767 441.493 122.133C441.402 122.403 441.362 122.688 441.375 122.973V129.033H437.959V118.393H441.375V119.874C441.686 119.335 442.136 118.89 442.678 118.586C443.22 118.281 443.834 118.129 444.455 118.144C446.697 118.144 448.392 119.625 448.392 122.817L448.392 129.033Z" fill="#3F3D56"/>
</svg>
